# xmcd CD database file
#
# Track frame offsets:
#	150
#	21280
#	42742
#	62982
#	85894
#	103020
#	119270
#	134656
#	154532
#	169738
#	189470
#	203594
#	218904
#	236917
#
# Disc length: 3313 seconds
#
# Revision: 1
# Processed by: cddbd v1.5.2PL0 Copyright (c) Steve Scherf et al.
# Submitted via: CDex 1.51
#
DISCID=cc0cef0e
DTITLE=Gary Allegretto - Many Shades of Blue
DYEAR=2008
DGENRE=Blues
TTITLE0=She Speaks To Me
TTITLE1=Somerset (feat. Doug MacLeod)
TTITLE2=Good To Go
TTITLE3=Four Days Late (feat. Ivan Neville, Janiva Magness)
TTITLE4=Never The Same
TTITLE5=Hurry Down Rounder (feat. John Cephas)
TTITLE6=Bad Man
TTITLE7=Tattoo Of Truth
TTITLE8=Saddle My Pony (feat. John Cephas)
TTITLE9=Settle Down Blues
TTITLE10=Back To Memphis
TTITLE11=Mind Your Own Business (feat. John Cephas)
TTITLE12=Risk of Love (feat. Janiva Magness)
TTITLE13=John's Kitchen Rag
EXTD=YEAR: 2008
EXTT0=
EXTT1=
EXTT2=
EXTT3=
EXTT4=
EXTT5=
EXTT6=
EXTT7=
EXTT8=
EXTT9=
EXTT10=
EXTT11=
EXTT12=
EXTT13=
PLAYORDER=
